M48
METRIC,LZ,000.000
;FILE_FORMAT=3:3
;TYPE=PLATED
;Layer: Drill PTH
;EasyEDA v6.4.25, 2022-01-03T23:04:32--5:00
;f870d6b240394c1986ede19cf4370902,f610eaca6985405d96f74a4a3e528675,10
;Gerber Generator version 0.2
;Holesize 1 = 0.305 mm
T01C0.305
;Holesize 2 = 1.000 mm
T02C1.000
%
G05
G90
T01
X014604Y-023114
X026797Y-004064
X001397Y-020066
X002413Y-021463
X007493Y-006350
X009144Y-021590
X026161Y-023622
X003937Y-024511
X002794Y-014605
X009779Y-020701
X008255Y-012827
X014986Y-003810
X006858Y-004445
X003810Y-001016
X005715Y-024003
X012954Y-020828
X014224Y-001905
X004318Y-009525
X008382Y-002921
X008445Y-022352
T02
X016661Y-023608G85X016661Y-023608
X019761Y-023608G85X019761Y-023608
X019761Y-002808G85X019761Y-002808
X016661Y-002808G85X016661Y-002808
M30
