G04 Layer: TopSilkLayer*
G04 EasyEDA v6.4.25, 2022-01-03T23:04:32--5:00*
G04 f870d6b240394c1986ede19cf4370902,f610eaca6985405d96f74a4a3e528675,10*
G04 Gerber Generator version 0.2*
G04 Scale: 100 percent, Rotated: No, Reflected: No *
G04 Dimensions in millimeters *
G04 leading zeros omitted , absolute positions ,4 integer and 5 decimal *
%FSLAX45Y45*%
%MOMM*%

%ADD21C,0.1270*%
%ADD22C,0.1999*%
%ADD23C,0.1524*%

%LPD*%
D23*
X735584Y-1320800D02*
G01*
X844550Y-1320800D01*
X735584Y-1320800D02*
G01*
X735584Y-1274063D01*
X740663Y-1258570D01*
X745997Y-1253236D01*
X756411Y-1248155D01*
X766826Y-1248155D01*
X777240Y-1253236D01*
X782320Y-1258570D01*
X787400Y-1274063D01*
X787400Y-1320800D02*
G01*
X787400Y-1274063D01*
X792734Y-1258570D01*
X797813Y-1253236D01*
X808227Y-1248155D01*
X823976Y-1248155D01*
X834390Y-1253236D01*
X839470Y-1258570D01*
X844550Y-1274063D01*
X844550Y-1320800D01*
X735584Y-1177289D02*
G01*
X844550Y-1177289D01*
X735584Y-1213865D02*
G01*
X735584Y-1140968D01*
X756411Y-1106678D02*
G01*
X751077Y-1096263D01*
X735584Y-1080770D01*
X844550Y-1080770D01*
X495300Y-341884D02*
G01*
X495300Y-450850D01*
X495300Y-450850D02*
G01*
X557529Y-450850D01*
X633476Y-341884D02*
G01*
X591820Y-450850D01*
X633476Y-341884D02*
G01*
X675131Y-450850D01*
X607568Y-414528D02*
G01*
X659384Y-414528D01*
X1524000Y-329184D02*
G01*
X1524000Y-438150D01*
X1524000Y-438150D02*
G01*
X1586229Y-438150D01*
X1620520Y-329184D02*
G01*
X1620520Y-438150D01*
X1620520Y-329184D02*
G01*
X1667510Y-329184D01*
X1683004Y-334263D01*
X1688084Y-339597D01*
X1693418Y-350012D01*
X1693418Y-360426D01*
X1688084Y-370839D01*
X1683004Y-375920D01*
X1667510Y-381000D01*
X1620520Y-381000D02*
G01*
X1667510Y-381000D01*
X1683004Y-386334D01*
X1688084Y-391413D01*
X1693418Y-401828D01*
X1693418Y-417576D01*
X1688084Y-427989D01*
X1683004Y-433070D01*
X1667510Y-438150D01*
X1620520Y-438150D01*
X2552700Y-329184D02*
G01*
X2552700Y-438150D01*
X2552700Y-438150D02*
G01*
X2614929Y-438150D01*
X2727197Y-355092D02*
G01*
X2722118Y-344678D01*
X2711704Y-334263D01*
X2701290Y-329184D01*
X2680461Y-329184D01*
X2670047Y-334263D01*
X2659634Y-344678D01*
X2654554Y-355092D01*
X2649220Y-370839D01*
X2649220Y-396747D01*
X2654554Y-412242D01*
X2659634Y-422655D01*
X2670047Y-433070D01*
X2680461Y-438150D01*
X2701290Y-438150D01*
X2711704Y-433070D01*
X2722118Y-422655D01*
X2727197Y-412242D01*
X508000Y-1091184D02*
G01*
X508000Y-1200150D01*
X508000Y-1200150D02*
G01*
X570229Y-1200150D01*
X604520Y-1091184D02*
G01*
X604520Y-1200150D01*
X604520Y-1091184D02*
G01*
X641095Y-1091184D01*
X656590Y-1096263D01*
X667004Y-1106678D01*
X672084Y-1117092D01*
X677418Y-1132839D01*
X677418Y-1158747D01*
X672084Y-1174242D01*
X667004Y-1184655D01*
X656590Y-1195070D01*
X641095Y-1200150D01*
X604520Y-1200150D01*
X1498600Y-1103884D02*
G01*
X1498600Y-1212850D01*
X1498600Y-1212850D02*
G01*
X1560829Y-1212850D01*
X1595120Y-1103884D02*
G01*
X1595120Y-1212850D01*
X1595120Y-1103884D02*
G01*
X1662684Y-1103884D01*
X1595120Y-1155700D02*
G01*
X1636776Y-1155700D01*
X1595120Y-1212850D02*
G01*
X1662684Y-1212850D01*
X2540000Y-1103884D02*
G01*
X2540000Y-1212850D01*
X2540000Y-1212850D02*
G01*
X2602229Y-1212850D01*
X2636520Y-1103884D02*
G01*
X2636520Y-1212850D01*
X2636520Y-1103884D02*
G01*
X2704084Y-1103884D01*
X2636520Y-1155700D02*
G01*
X2678176Y-1155700D01*
X495300Y-1827784D02*
G01*
X495300Y-1936750D01*
X495300Y-1936750D02*
G01*
X557529Y-1936750D01*
X669797Y-1853692D02*
G01*
X664718Y-1843278D01*
X654304Y-1832863D01*
X643890Y-1827784D01*
X623061Y-1827784D01*
X612647Y-1832863D01*
X602234Y-1843278D01*
X597154Y-1853692D01*
X591820Y-1869439D01*
X591820Y-1895347D01*
X597154Y-1910842D01*
X602234Y-1921255D01*
X612647Y-1931670D01*
X623061Y-1936750D01*
X643890Y-1936750D01*
X654304Y-1931670D01*
X664718Y-1921255D01*
X669797Y-1910842D01*
X669797Y-1895347D01*
X643890Y-1895347D02*
G01*
X669797Y-1895347D01*
X1498600Y-1865884D02*
G01*
X1498600Y-1974850D01*
X1498600Y-1974850D02*
G01*
X1560829Y-1974850D01*
X1595120Y-1865884D02*
G01*
X1595120Y-1974850D01*
X1668018Y-1865884D02*
G01*
X1668018Y-1974850D01*
X1595120Y-1917700D02*
G01*
X1668018Y-1917700D01*
X2501900Y-1865884D02*
G01*
X2501900Y-1974850D01*
X2501900Y-1974850D02*
G01*
X2564129Y-1974850D01*
X2598420Y-1865884D02*
G01*
X2598420Y-1974850D01*
X288543Y-116078D02*
G01*
X278129Y-105663D01*
X262636Y-100584D01*
X241808Y-100584D01*
X226313Y-105663D01*
X215900Y-116078D01*
X215900Y-126492D01*
X220979Y-136905D01*
X226313Y-142239D01*
X236727Y-147320D01*
X267970Y-157734D01*
X278129Y-162813D01*
X283463Y-168147D01*
X288543Y-178562D01*
X288543Y-194055D01*
X278129Y-204470D01*
X262636Y-209550D01*
X241808Y-209550D01*
X226313Y-204470D01*
X215900Y-194055D01*
X364490Y-100584D02*
G01*
X322834Y-209550D01*
X364490Y-100584D02*
G01*
X406145Y-209550D01*
X338581Y-173228D02*
G01*
X390397Y-173228D01*
X1304543Y-116078D02*
G01*
X1294129Y-105663D01*
X1278636Y-100584D01*
X1257808Y-100584D01*
X1242313Y-105663D01*
X1231900Y-116078D01*
X1231900Y-126492D01*
X1236979Y-136905D01*
X1242313Y-142239D01*
X1252727Y-147320D01*
X1283970Y-157734D01*
X1294129Y-162813D01*
X1299463Y-168147D01*
X1304543Y-178562D01*
X1304543Y-194055D01*
X1294129Y-204470D01*
X1278636Y-209550D01*
X1257808Y-209550D01*
X1242313Y-204470D01*
X1231900Y-194055D01*
X1338834Y-100584D02*
G01*
X1338834Y-209550D01*
X1338834Y-100584D02*
G01*
X1385570Y-100584D01*
X1401318Y-105663D01*
X1406397Y-110997D01*
X1411731Y-121412D01*
X1411731Y-131826D01*
X1406397Y-142239D01*
X1401318Y-147320D01*
X1385570Y-152400D01*
X1338834Y-152400D02*
G01*
X1385570Y-152400D01*
X1401318Y-157734D01*
X1406397Y-162813D01*
X1411731Y-173228D01*
X1411731Y-188976D01*
X1406397Y-199389D01*
X1401318Y-204470D01*
X1385570Y-209550D01*
X1338834Y-209550D01*
X2320543Y-116078D02*
G01*
X2310129Y-105663D01*
X2294636Y-100584D01*
X2273808Y-100584D01*
X2258313Y-105663D01*
X2247900Y-116078D01*
X2247900Y-126492D01*
X2252979Y-136905D01*
X2258313Y-142239D01*
X2268727Y-147320D01*
X2299970Y-157734D01*
X2310129Y-162813D01*
X2315463Y-168147D01*
X2320543Y-178562D01*
X2320543Y-194055D01*
X2310129Y-204470D01*
X2294636Y-209550D01*
X2273808Y-209550D01*
X2258313Y-204470D01*
X2247900Y-194055D01*
X2432811Y-126492D02*
G01*
X2427731Y-116078D01*
X2417318Y-105663D01*
X2406904Y-100584D01*
X2386076Y-100584D01*
X2375661Y-105663D01*
X2365247Y-116078D01*
X2360168Y-126492D01*
X2354834Y-142239D01*
X2354834Y-168147D01*
X2360168Y-183642D01*
X2365247Y-194055D01*
X2375661Y-204470D01*
X2386076Y-209550D01*
X2406904Y-209550D01*
X2417318Y-204470D01*
X2427731Y-194055D01*
X2432811Y-183642D01*
X288543Y-878078D02*
G01*
X278129Y-867663D01*
X262636Y-862584D01*
X241808Y-862584D01*
X226313Y-867663D01*
X215900Y-878078D01*
X215900Y-888492D01*
X220979Y-898905D01*
X226313Y-904239D01*
X236727Y-909320D01*
X267970Y-919734D01*
X278129Y-924813D01*
X283463Y-930147D01*
X288543Y-940562D01*
X288543Y-956055D01*
X278129Y-966470D01*
X262636Y-971550D01*
X241808Y-971550D01*
X226313Y-966470D01*
X215900Y-956055D01*
X322834Y-862584D02*
G01*
X322834Y-971550D01*
X322834Y-862584D02*
G01*
X359410Y-862584D01*
X374904Y-867663D01*
X385318Y-878078D01*
X390397Y-888492D01*
X395731Y-904239D01*
X395731Y-930147D01*
X390397Y-945642D01*
X385318Y-956055D01*
X374904Y-966470D01*
X359410Y-971550D01*
X322834Y-971550D01*
X1304543Y-878078D02*
G01*
X1294129Y-867663D01*
X1278636Y-862584D01*
X1257808Y-862584D01*
X1242313Y-867663D01*
X1231900Y-878078D01*
X1231900Y-888492D01*
X1236979Y-898905D01*
X1242313Y-904239D01*
X1252727Y-909320D01*
X1283970Y-919734D01*
X1294129Y-924813D01*
X1299463Y-930147D01*
X1304543Y-940562D01*
X1304543Y-956055D01*
X1294129Y-966470D01*
X1278636Y-971550D01*
X1257808Y-971550D01*
X1242313Y-966470D01*
X1231900Y-956055D01*
X1338834Y-862584D02*
G01*
X1338834Y-971550D01*
X1338834Y-862584D02*
G01*
X1406397Y-862584D01*
X1338834Y-914400D02*
G01*
X1380490Y-914400D01*
X1338834Y-971550D02*
G01*
X1406397Y-971550D01*
X2320543Y-878078D02*
G01*
X2310129Y-867663D01*
X2294636Y-862584D01*
X2273808Y-862584D01*
X2258313Y-867663D01*
X2247900Y-878078D01*
X2247900Y-888492D01*
X2252979Y-898905D01*
X2258313Y-904239D01*
X2268727Y-909320D01*
X2299970Y-919734D01*
X2310129Y-924813D01*
X2315463Y-930147D01*
X2320543Y-940562D01*
X2320543Y-956055D01*
X2310129Y-966470D01*
X2294636Y-971550D01*
X2273808Y-971550D01*
X2258313Y-966470D01*
X2247900Y-956055D01*
X2354834Y-862584D02*
G01*
X2354834Y-971550D01*
X2354834Y-862584D02*
G01*
X2422397Y-862584D01*
X2354834Y-914400D02*
G01*
X2396490Y-914400D01*
X288543Y-1640078D02*
G01*
X278129Y-1629663D01*
X262636Y-1624584D01*
X241808Y-1624584D01*
X226313Y-1629663D01*
X215900Y-1640078D01*
X215900Y-1650492D01*
X220979Y-1660905D01*
X226313Y-1666239D01*
X236727Y-1671320D01*
X267970Y-1681734D01*
X278129Y-1686813D01*
X283463Y-1692147D01*
X288543Y-1702562D01*
X288543Y-1718055D01*
X278129Y-1728470D01*
X262636Y-1733550D01*
X241808Y-1733550D01*
X226313Y-1728470D01*
X215900Y-1718055D01*
X400811Y-1650492D02*
G01*
X395731Y-1640078D01*
X385318Y-1629663D01*
X374904Y-1624584D01*
X354076Y-1624584D01*
X343661Y-1629663D01*
X333247Y-1640078D01*
X328168Y-1650492D01*
X322834Y-1666239D01*
X322834Y-1692147D01*
X328168Y-1707642D01*
X333247Y-1718055D01*
X343661Y-1728470D01*
X354076Y-1733550D01*
X374904Y-1733550D01*
X385318Y-1728470D01*
X395731Y-1718055D01*
X400811Y-1707642D01*
X400811Y-1692147D01*
X374904Y-1692147D02*
G01*
X400811Y-1692147D01*
X1304543Y-1640078D02*
G01*
X1294129Y-1629663D01*
X1278636Y-1624584D01*
X1257808Y-1624584D01*
X1242313Y-1629663D01*
X1231900Y-1640078D01*
X1231900Y-1650492D01*
X1236979Y-1660905D01*
X1242313Y-1666239D01*
X1252727Y-1671320D01*
X1283970Y-1681734D01*
X1294129Y-1686813D01*
X1299463Y-1692147D01*
X1304543Y-1702562D01*
X1304543Y-1718055D01*
X1294129Y-1728470D01*
X1278636Y-1733550D01*
X1257808Y-1733550D01*
X1242313Y-1728470D01*
X1231900Y-1718055D01*
X1338834Y-1624584D02*
G01*
X1338834Y-1733550D01*
X1411731Y-1624584D02*
G01*
X1411731Y-1733550D01*
X1338834Y-1676400D02*
G01*
X1411731Y-1676400D01*
X2320543Y-1640078D02*
G01*
X2310129Y-1629663D01*
X2294636Y-1624584D01*
X2273808Y-1624584D01*
X2258313Y-1629663D01*
X2247900Y-1640078D01*
X2247900Y-1650492D01*
X2252979Y-1660905D01*
X2258313Y-1666239D01*
X2268727Y-1671320D01*
X2299970Y-1681734D01*
X2310129Y-1686813D01*
X2315463Y-1692147D01*
X2320543Y-1702562D01*
X2320543Y-1718055D01*
X2310129Y-1728470D01*
X2294636Y-1733550D01*
X2273808Y-1733550D01*
X2258313Y-1728470D01*
X2247900Y-1718055D01*
X2354834Y-1624584D02*
G01*
X2354834Y-1733550D01*
D21*
X1519097Y-2375788D02*
G01*
X1066114Y-2375788D01*
X1066114Y-1920798D01*
X1066114Y-720801D02*
G01*
X1066114Y-265811D01*
X1519097Y-265811D01*
X2123109Y-2375788D02*
G01*
X2616098Y-2375788D01*
X2616098Y-1870811D01*
X2616098Y-770788D02*
G01*
X2616098Y-265811D01*
X2123109Y-265811D01*
X466090Y-484200D02*
G01*
X626110Y-484200D01*
X466090Y-684199D02*
G01*
X626110Y-684199D01*
X1494790Y-471500D02*
G01*
X1654810Y-471500D01*
X1494790Y-671499D02*
G01*
X1654810Y-671499D01*
X2523490Y-471500D02*
G01*
X2683510Y-471500D01*
X2523490Y-671499D02*
G01*
X2683510Y-671499D01*
X478790Y-1233500D02*
G01*
X638810Y-1233500D01*
X478790Y-1433499D02*
G01*
X638810Y-1433499D01*
X1469390Y-1246200D02*
G01*
X1629410Y-1246200D01*
X1469390Y-1446199D02*
G01*
X1629410Y-1446199D01*
X2510790Y-1246200D02*
G01*
X2670810Y-1246200D01*
X2510790Y-1446199D02*
G01*
X2670810Y-1446199D01*
X466090Y-1970100D02*
G01*
X626110Y-1970100D01*
X466090Y-2170099D02*
G01*
X626110Y-2170099D01*
X1469390Y-2008200D02*
G01*
X1629410Y-2008200D01*
X1469390Y-2208199D02*
G01*
X1629410Y-2208199D01*
X2472690Y-2008200D02*
G01*
X2632710Y-2008200D01*
X2472690Y-2208199D02*
G01*
X2632710Y-2208199D01*
D22*
G75*
G01*
X362280Y-529209D02*
G03*
X362280Y-529692I-11173J-241D01*
G75*
G01*
X1390980Y-516509D02*
G03*
X1390980Y-516992I-11173J-241D01*
G75*
G01*
X2419680Y-516509D02*
G03*
X2419680Y-516992I-11173J-241D01*
G75*
G01*
X374980Y-1278509D02*
G03*
X374980Y-1278992I-11173J-241D01*
G75*
G01*
X1365580Y-1291209D02*
G03*
X1365580Y-1291692I-11173J-241D01*
G75*
G01*
X2406980Y-1291209D02*
G03*
X2406980Y-1291692I-11173J-241D01*
G75*
G01*
X362280Y-2015109D02*
G03*
X362280Y-2015592I-11173J-241D01*
G75*
G01*
X1365580Y-2053209D02*
G03*
X1365580Y-2053692I-11173J-241D01*
G75*
G01*
X2368880Y-2053209D02*
G03*
X2368880Y-2053692I-11173J-241D01*
M02*
