G04 Layer: BottomSolderMaskLayer*
G04 EasyEDA v6.4.25, 2022-01-03T23:04:32--5:00*
G04 f870d6b240394c1986ede19cf4370902,f610eaca6985405d96f74a4a3e528675,10*
G04 Gerber Generator version 0.2*
G04 Scale: 100 percent, Rotated: No, Reflected: No *
G04 Dimensions in millimeters *
G04 leading zeros omitted , absolute positions ,4 integer and 5 decimal *
%FSLAX45Y45*%
%MOMM*%

%ADD24C,2.1000*%
%ADD25C,2.5032*%
%ADD27C,0.4016*%
%ADD28C,1.6000*%
%ADD30C,18.0033*%

%LPD*%
D27*
X733811Y-2008200D02*
G01*
X783813Y-2008200D01*
X733811Y-2058212D02*
G01*
X783813Y-2058212D01*
X733811Y-2108200D02*
G01*
X783813Y-2108200D01*
X733811Y-2158212D02*
G01*
X783813Y-2158212D01*
X733811Y-2208199D02*
G01*
X783813Y-2208199D01*
X658812Y-2283200D02*
G01*
X658812Y-2333200D01*
X608799Y-2283200D02*
G01*
X608799Y-2333200D01*
X558812Y-2283200D02*
G01*
X558812Y-2333200D01*
X508800Y-2283200D02*
G01*
X508800Y-2333200D01*
X458812Y-2283200D02*
G01*
X458812Y-2333200D01*
X333814Y-2208199D02*
G01*
X383814Y-2208199D01*
X333814Y-2158212D02*
G01*
X383814Y-2158212D01*
X333814Y-2108200D02*
G01*
X383814Y-2108200D01*
X333814Y-2058212D02*
G01*
X383814Y-2058212D01*
X333814Y-2008200D02*
G01*
X383814Y-2008200D01*
X458812Y-1883201D02*
G01*
X458812Y-1933201D01*
X508800Y-1883201D02*
G01*
X508800Y-1933201D01*
X558812Y-1883201D02*
G01*
X558812Y-1933201D01*
X608799Y-1883201D02*
G01*
X608799Y-1933201D01*
X658812Y-1883201D02*
G01*
X658812Y-1933201D01*
D24*
G01*
X520712Y-165100D03*
G01*
X215912Y-2413000D03*
D28*
G01*
X952512Y-2451100D03*
G01*
X762012Y-2451100D03*
G36*
X496481Y-2534157D02*
G01*
X496481Y-2444242D01*
X646595Y-2444242D01*
X646595Y-2534157D01*
G37*
D30*
G01*
X1816112Y-1320800D03*
D25*
G01*
X1666100Y-2360803D03*
G01*
X1976107Y-2360803D03*
G01*
X1976107Y-280796D03*
G01*
X1666100Y-280796D03*
G36*
X423583Y-2243328D02*
G01*
X423583Y-1973071D01*
X693839Y-1973071D01*
X693839Y-2243328D01*
G37*
G36*
X945807Y-318007D02*
G01*
X945807Y-251205D01*
X1010069Y-251205D01*
X1010069Y-318007D01*
G37*
G36*
X945807Y-231394D02*
G01*
X945807Y-164592D01*
X1010069Y-164592D01*
X1010069Y-231394D01*
G37*
M02*
