G04 Layer: BottomPasteMaskLayer*
G04 EasyEDA v6.4.25, 2022-01-03T23:04:32--5:00*
G04 f870d6b240394c1986ede19cf4370902,f610eaca6985405d96f74a4a3e528675,10*
G04 Gerber Generator version 0.2*
G04 Scale: 100 percent, Rotated: No, Reflected: No *
G04 Dimensions in millimeters *
G04 leading zeros omitted , absolute positions ,4 integer and 5 decimal *
%FSLAX45Y45*%
%MOMM*%

%ADD12C,2.0000*%
%ADD15C,0.3000*%
%ADD16C,1.5000*%
%ADD18C,17.8001*%

%LPD*%
G36*
X954887Y-254812D02*
G01*
X950874Y-258775D01*
X950874Y-308864D01*
X954887Y-312877D01*
X1000912Y-312877D01*
X1004925Y-308864D01*
X1004925Y-258775D01*
X1000912Y-254812D01*
G37*
G36*
X954887Y-169722D02*
G01*
X950874Y-173736D01*
X950874Y-223824D01*
X954887Y-227787D01*
X1000912Y-227787D01*
X1004925Y-223824D01*
X1004925Y-173736D01*
X1000912Y-169722D01*
G37*
D15*
X733811Y-2008200D02*
G01*
X783813Y-2008200D01*
X733811Y-2058212D02*
G01*
X783813Y-2058212D01*
X733811Y-2108200D02*
G01*
X783813Y-2108200D01*
X733811Y-2158212D02*
G01*
X783813Y-2158212D01*
X733811Y-2208199D02*
G01*
X783813Y-2208199D01*
X658812Y-2283200D02*
G01*
X658812Y-2333200D01*
X608799Y-2283200D02*
G01*
X608799Y-2333200D01*
X558812Y-2283200D02*
G01*
X558812Y-2333200D01*
X508800Y-2283200D02*
G01*
X508800Y-2333200D01*
X458812Y-2283200D02*
G01*
X458812Y-2333200D01*
X333814Y-2208199D02*
G01*
X383814Y-2208199D01*
X333814Y-2158212D02*
G01*
X383814Y-2158212D01*
X333814Y-2108200D02*
G01*
X383814Y-2108200D01*
X333814Y-2058212D02*
G01*
X383814Y-2058212D01*
X333814Y-2008200D02*
G01*
X383814Y-2008200D01*
X458812Y-1883201D02*
G01*
X458812Y-1933201D01*
X508800Y-1883201D02*
G01*
X508800Y-1933201D01*
X558812Y-1883201D02*
G01*
X558812Y-1933201D01*
X608799Y-1883201D02*
G01*
X608799Y-1933201D01*
X658812Y-1883201D02*
G01*
X658812Y-1933201D01*
D12*
G01*
X520712Y-165100D03*
G01*
X215912Y-2413000D03*
D16*
G01*
X952512Y-2451100D03*
G01*
X762012Y-2451100D03*
G36*
X501500Y-2449200D02*
G01*
X641499Y-2449200D01*
X641499Y-2529199D01*
X501500Y-2529199D01*
G37*
D18*
G01*
X1816112Y-1320800D03*
G36*
X688787Y-1978187D02*
G01*
X428787Y-1978187D01*
X428787Y-2238187D01*
X688787Y-2238187D01*
G37*
M02*
